<?xml version="1.0" encoding="UTF-8" standalone="no"?>
<!-- Created with Inkscape (http://www.inkscape.org/) -->

<svg
   width="201.39774mm"
   height="168.37831mm"
   viewBox="0 0 201.39774 168.37831"
   version="1.1"
   id="svg1"
   xml:space="preserve"
   xmlns:inkscape="http://www.inkscape.org/namespaces/inkscape"
   xmlns:sodipodi="http://sodipodi.sourceforge.net/DTD/sodipodi-0.dtd"
   xmlns="http://www.w3.org/2000/svg"
   xmlns:svg="http://www.w3.org/2000/svg"><sodipodi:namedview
     id="namedview1"
     pagecolor="#505050"
     bordercolor="#eeeeee"
     borderopacity="1"
     inkscape:showpageshadow="0"
     inkscape:pageopacity="0"
     inkscape:pagecheckerboard="0"
     inkscape:deskcolor="#d1d1d1"
     inkscape:document-units="mm"><inkscape:page
       x="0"
       y="-1.2077263e-13"
       width="201.39774"
       height="168.37833"
       id="page2"
       margin="0"
       bleed="0" /></sodipodi:namedview><defs
     id="defs1" /><g
     inkscape:label="Layer 1"
     inkscape:groupmode="layer"
     id="layer1"
     transform="translate(-184.85258,-190.17058)"><path
       style="fill:#000000"
       d="m 189.88596,358.19088 c -1.61403,-0.39144 -4.12809,-1.61655 -4.76773,-2.32334 -0.43035,-0.47554 -0.40251,-0.59588 0.569,-2.45923 l 1.02149,-1.95922 0.7522,0.53562 c 1.62359,1.15609 3.96381,1.89715 6.04048,1.91278 2.84865,0.0214 4.36079,-0.89481 4.6753,-2.83289 0.30399,-1.87325 -1.04331,-2.96559 -5.55527,-4.50398 -5.53514,-1.88725 -7.32212,-3.81744 -7.32212,-7.90893 0,-4.3349 2.86288,-7.08648 8.01837,-7.70662 1.96332,-0.23616 4.77733,0.27582 6.88648,1.25292 2.71826,1.25929 2.7526,1.32832 1.85786,3.73431 -0.40856,1.09862 -0.84634,1.99749 -0.97286,1.99749 -0.12652,0 -0.54607,-0.22451 -0.93234,-0.4989 -1.92577,-1.36803 -4.60104,-2.0168 -6.60284,-1.60122 -1.89921,0.39427 -2.69842,1.17547 -2.69842,2.63761 0,1.55994 0.91413,2.37171 3.70722,3.29212 5.08662,1.67618 7.46985,3.28237 8.38356,5.65012 0.69039,1.78905 0.63473,5.11782 -0.10916,6.52756 -1.05943,2.00774 -2.78747,3.40094 -5.11792,4.12626 -1.89108,0.58857 -5.67807,0.65023 -7.8333,0.12754 z m 22.91694,0.0308 c -2.38926,-0.67367 -4.4453,-2.45034 -5.72376,-4.94606 -0.70087,-1.36818 -0.74527,-1.65299 -0.74239,-4.7625 0.003,-3.05617 0.0575,-3.41853 0.7202,-4.77236 1.12665,-2.30174 2.37016,-3.5597 4.616,-4.66965 1.86065,-0.91959 2.16596,-0.98895 4.28519,-0.97347 2.77584,0.0203 4.71911,0.68775 6.45768,2.2181 2.73741,2.40956 3.93968,5.79194 3.40434,9.57747 -0.52692,3.72598 -2.41332,6.38126 -5.5641,7.832 -1.76786,0.81399 -5.45576,1.05965 -7.45316,0.49647 z m 5.59635,-4.75786 c 1.4399,-0.96987 2.19977,-2.62506 2.21178,-4.81783 0.0179,-3.26211 -1.21833,-5.32269 -3.57375,-5.95694 -2.22554,-0.59928 -4.59814,0.87648 -5.27062,3.27834 -0.45664,1.63094 -0.23595,4.58801 0.44019,5.89818 0.78253,1.51634 1.96297,2.2038 3.78413,2.2038 1.13444,0 1.7325,-0.15038 2.40827,-0.60555 z m 14.99048,4.72698 c -2.19258,-0.78254 -3.67311,-2.45087 -4.15053,-4.67702 -0.16053,-0.74852 -0.28364,-4.30266 -0.28364,-8.18868 v -6.86615 h 2.64583 2.64584 l 0.002,6.15157 c 8.1e-4,3.38336 0.11969,6.57712 0.26418,7.09725 0.77931,2.80538 4.77818,3.17822 6.49553,0.60562 0.53377,-0.79958 0.54964,-1.06818 0.43374,-7.34219 l -0.1203,-6.51225 h 2.81269 2.81268 v 9.78959 9.78958 h -2.38125 -2.38125 v -1.24571 -1.24572 l -1.12448,1.10247 c -0.61846,0.60636 -1.64546,1.28599 -2.28222,1.5103 -1.40786,0.49593 -4.0436,0.51127 -5.38829,0.0313 z m 45.57208,-0.0626 c -2.87381,-0.99879 -4.95665,-3.50901 -5.70589,-6.8767 -1.03622,-4.65761 0.50069,-9.51826 3.70718,-11.72438 1.15909,-0.79747 3.61736,-1.59736 4.90913,-1.59736 1.29471,0 3.75115,0.80066 4.91665,1.60254 l 1.16876,0.80413 v -5.30438 -5.30438 h 2.64583 2.64584 v 14.15521 14.15521 h -2.22065 c -2.42089,0 -2.54185,-0.078 -2.54185,-1.63993 v -0.8029 l -1.08823,0.98315 c -1.6531,1.49348 -2.94792,1.97836 -5.26177,1.9704 -1.09783,-0.004 -2.5163,-0.19168 -3.175,-0.42061 z m 6.77305,-4.56301 c 1.9333,-0.878 2.22278,-1.58434 2.22278,-5.42367 0,-2.9414 -0.06,-3.39264 -0.51147,-3.84407 -1.40442,-1.40442 -3.60899,-2.06306 -5.34276,-1.5962 -1.39608,0.37592 -3.06082,1.90671 -3.39947,3.12591 -0.35875,1.29161 -0.34295,3.98054 0.0299,5.09384 0.91862,2.74266 4.12096,3.95215 7.00099,2.64419 z m 50.37695,4.58006 c -2.01223,-0.53539 -3.64776,-1.60681 -4.82108,-3.15823 -1.26955,-1.67866 -1.79326,-3.18902 -1.97969,-5.70931 -0.35058,-4.73949 1.7597,-8.71303 5.54815,-10.4468 1.41166,-0.64605 1.97375,-0.75338 3.89845,-0.7444 2.50266,0.0117 3.99874,0.51679 5.83263,1.96926 1.84302,1.4597 3.15738,5.00304 3.16167,8.52347 l 0.002,1.25677 h -6.61458 c -3.63802,0 -6.61458,0.0418 -6.61458,0.0928 0,0.44174 0.7224,2.05353 1.22261,2.72784 1.35142,1.82176 5.0663,2.20622 8.0627,0.83442 0.78667,-0.36015 1.54544,-0.68375 1.68616,-0.7191 0.14071,-0.0354 0.5169,0.70962 0.83598,1.65551 0.53863,1.59676 0.54871,1.74729 0.14102,2.10412 -2.05528,1.79892 -6.85507,2.54645 -10.36097,1.61364 z m 6.60877,-12.34414 c -0.0107,-0.60838 -0.97124,-2.44156 -1.54842,-2.95513 -0.81298,-0.72337 -3.11918,-0.87555 -4.35822,-0.28758 -0.99777,0.47347 -1.85422,1.59904 -2.1654,2.84584 l -0.1816,0.7276 h 4.12972 c 3.13049,0 4.12832,-0.08 4.12392,-0.33073 z m 10.92005,12.35733 c -0.76389,-0.2057 -1.86232,-0.61552 -2.44095,-0.91072 l -1.05207,-0.53673 0.68609,-1.91614 c 0.37735,-1.05387 0.73128,-1.96539 0.78652,-2.0256 0.0552,-0.0602 0.7854,0.22769 1.62257,0.63975 2.07619,1.02192 5.07698,1.21851 6.35079,0.41607 0.65254,-0.41108 0.85989,-0.72941 0.85989,-1.32014 0,-1.10721 -0.90226,-1.7047 -3.59362,-2.37971 -1.25796,-0.3155 -2.72175,-0.79533 -3.25286,-1.06629 -2.0119,-1.02639 -3.20904,-2.78298 -3.20621,-4.70453 0.004,-2.50665 1.23347,-4.37476 3.64216,-5.53269 1.31501,-0.63217 1.83109,-0.7275 3.89699,-0.71988 1.79319,0.007 2.74453,0.14985 3.85228,0.58 2.40705,0.93467 2.4256,0.96147 1.95235,2.8198 -0.22236,0.87313 -0.44992,1.72369 -0.50569,1.89015 -0.0677,0.20211 -0.52521,0.097 -1.37726,-0.31648 -3.27507,-1.58927 -6.86747,-0.81837 -6.3216,1.35658 0.19347,0.77083 1.04374,1.21905 3.42112,1.80346 5.28259,1.29857 7.24238,4.04771 5.83338,8.18289 -0.54101,1.5878 -2.34372,3.21307 -4.16312,3.75338 -1.65327,0.49097 -5.14298,0.48439 -6.99076,-0.0132 z m -102.46007,-9.90032 v -9.79917 h 2.51354 2.51354 v 1.05834 c 0,0.58208 0.0721,1.05833 0.16025,1.05833 0.0881,0 0.52075,-0.30335 0.96137,-0.6741 1.61583,-1.35963 2.8457,-1.81095 4.96533,-1.82206 3.40049,-0.0178 5.6984,1.52184 6.88446,4.61283 0.25512,0.66485 0.38512,2.95957 0.46094,8.13593 l 0.1056,7.2099 h -2.66793 -2.66793 v -5.85628 c 0,-6.56861 -0.16651,-7.52881 -1.51011,-8.70851 -0.70313,-0.61736 -1.13893,-0.78104 -2.07947,-0.78104 -1.45905,0 -2.68016,0.49537 -3.55417,1.44184 -0.65988,0.71458 -0.66178,0.73189 -0.79375,7.244 l -0.1323,6.5277 -2.57968,0.0757 -2.57969,0.0757 z m 46.20437,5.8774 c 0.0928,-2.14644 0.36113,-8.10789 0.59625,-13.24768 l 0.4275,-9.34508 3.37095,-0.0369 c 1.86746,-0.0204 3.47374,0.0763 3.60144,0.21695 0.24018,0.26452 2.60211,6.74964 4.86243,13.35073 0.72251,2.11005 1.40591,4.00284 1.51865,4.2062 0.13281,0.23956 0.50153,-0.55233 1.04716,-2.24895 1.04457,-3.24806 5.03951,-14.65869 5.30492,-15.15227 0.14977,-0.27852 0.94789,-0.35848 3.43815,-0.34444 1.78371,0.01 3.2846,0.0598 3.33531,0.11048 0.0848,0.0848 1.43453,24.32279 1.43453,25.76079 0,0.62262 -0.0401,0.63277 -2.49792,0.63277 -1.37386,0 -2.5536,-0.0901 -2.62163,-0.20016 -0.068,-0.11008 -0.19744,-3.35453 -0.28757,-7.20989 -0.1949,-8.33752 -0.37723,-11.11019 -0.69346,-10.54512 -0.23366,0.41753 -3.05958,8.39633 -5.09425,14.38329 l -1.16894,3.43959 -2.23268,0.0757 -2.23269,0.0757 -1.2082,-3.38298 c -0.66451,-1.86063 -2.08694,-5.97132 -3.16095,-9.13485 -1.07401,-3.16353 -2.02525,-5.75314 -2.11387,-5.75469 -0.0886,-0.002 -0.23936,2.46774 -0.33498,5.48729 -0.0956,3.01956 -0.24819,7.12722 -0.33903,9.12813 l -0.16518,3.63802 h -2.47735 -2.47734 z m 70.74146,-10.25261 V 329.7277 h 2.64583 2.64583 v 5.42396 c 0,2.98318 0.0983,5.42396 0.21847,5.42396 0.12015,0 0.5071,-0.30924 0.85989,-0.68721 1.21664,-1.30346 2.5601,-1.80186 4.87477,-1.80844 1.83864,-0.005 2.29762,0.0935 3.49427,0.75146 0.77043,0.42363 1.65181,1.179 1.99977,1.71386 1.34879,2.07333 1.38512,2.33786 1.38512,10.0845 v 7.27604 l -2.42288,0.0757 -2.42288,0.0757 -0.095,-6.29346 c -0.10092,-6.68662 -0.19139,-7.18827 -1.51176,-8.38318 -0.70091,-0.63432 -2.92095,-0.87016 -3.99667,-0.42458 -0.43892,0.1818 -1.15467,0.73674 -1.59056,1.2332 l -0.79254,0.90264 v 6.47308 6.47309 h -2.64583 -2.64583 z m -99.11866,-29.08747 c -0.45427,-0.19771 -1.01981,-0.63626 -1.25677,-0.97456 -0.56996,-0.81373 -0.56959,-3.09189 6.4e-4,-3.906 0.84183,-1.20189 1.75759,-1.35384 8.159,-1.35384 h 5.96163 v -6.87413 -6.87412 l -0.59532,-0.11931 c -0.32742,-0.0656 -1.3621,-0.25693 -2.29929,-0.42514 -7.74449,-1.38994 -15.2262,-7.12236 -18.81331,-14.41459 -2.10871,-4.28679 -2.42446,-5.86891 -2.56717,-12.8632 l -0.1221,-5.98403 0.76261,-0.85351 c 0.57625,-0.64493 0.99544,-0.86011 1.71536,-0.88051 1.13578,-0.0322 2.26703,0.64329 2.61644,1.56231 0.13903,0.36567 0.25278,2.73291 0.25278,5.26053 0,6.24051 0.70701,9.41895 2.92601,13.15408 2.75619,4.63935 7.30971,8.01336 12.81669,9.49675 2.90741,0.78315 8.38355,0.84155 11.24479,0.11991 6.50973,-1.64183 11.58414,-5.52688 14.15992,-10.84103 1.85592,-3.82898 2.04093,-4.79047 2.21917,-11.53276 0.0866,-3.27422 0.2612,-6.1141 0.38811,-6.31085 0.45858,-0.71096 1.9911,-1.14747 2.93496,-0.83597 1.84094,0.60756 1.86384,0.69934 1.83985,7.37304 -0.0166,4.61553 -0.12186,6.40086 -0.45843,7.77407 -1.17657,4.80045 -3.37373,8.69502 -6.91892,12.26413 -4.19768,4.226 -8.76276,6.55322 -15.28913,7.79422 l -1.52136,0.28929 v 6.84658 6.84658 l 6.06675,0.08 c 5.67151,0.0748 6.11536,0.11601 6.81302,0.63311 0.41045,0.30422 0.91647,1.03466 1.1245,1.62318 0.32934,0.93177 0.32812,1.20168 -0.009,2.0885 -0.22298,0.58585 -0.76549,1.27308 -1.27725,1.61795 l -0.88962,0.59952 -14.5791,-0.0104 c -11.68561,-0.008 -14.74303,-0.0817 -15.40506,-0.36983 z m 55.94994,-15.75333 c -1.89113,-0.56964 -3.21255,-1.97385 -3.5375,-3.75914 -0.30514,-1.67649 0.26902,-2.72751 3.01555,-5.52004 4.13116,-4.20034 6.63299,-8.7915 7.76111,-14.24253 0.42589,-2.05785 0.50188,-3.2051 0.39649,-5.9854 -0.15612,-4.11872 -0.7385,-6.54454 -2.42681,-10.10859 -1.55809,-3.28918 -3.03558,-5.32005 -5.9532,-8.18296 -2.83174,-2.77865 -3.13756,-3.44024 -2.54015,-5.49524 0.62213,-2.14007 2.59227,-3.59758 4.86289,-3.59758 2.21112,0 6.52335,3.09845 9.20362,6.61304 0.55552,0.72845 1.10464,1.32445 1.22025,1.32445 0.339,0 0.24187,-4.36302 -0.17672,-7.93912 -1.25011,-10.67971 -6.02096,-20.57923 -13.7518,-28.53502 -8.93809,-9.19817 -20.05221,-14.61322 -32.71396,-15.93898 -4.02882,-0.42184 -11.41147,-0.17099 -15.32438,0.52069 -10.29361,1.8196 -19.65527,6.73384 -27.27087,14.31534 -8.28604,8.24896 -13.19597,18.11426 -14.6595,29.45471 -0.3317,2.57024 -0.40296,6.8896 -0.40296,24.4252 0,21.92953 -0.003,21.98804 -1.03541,22.78096 -1.60916,1.23547 -7.18993,-0.92528 -10.39339,-4.02409 -5.65944,-5.47456 -7.7913,-15.53783 -5.06765,-23.92145 1.38113,-4.25121 4.30612,-8.21907 7.72836,-10.4838 l 1.04686,-0.69279 0.15821,-2.82509 c 0.39958,-7.13498 1.24179,-11.78058 3.21588,-17.73864 5.89426,-17.78958 21.12444,-32.08217 39.77864,-37.3298 5.84132,-1.64322 8.48312,-1.97312 15.89766,-1.98522 7.14479,-0.0117 9.60506,0.21157 14.70504,1.33427 7.65997,1.68624 15.2907,5.13299 22.18593,10.02122 2.94746,2.08955 8.05904,6.87948 10.57693,9.91137 8.27086,9.95932 12.5236,21.42048 13.03845,35.13872 l 0.16114,4.29368 1.54406,1.34298 c 3.31426,2.88265 5.92445,7.42016 6.8506,11.90893 0.93882,4.55017 0.55432,9.82659 -1.01683,13.9537 -1.36742,3.59198 -4.51933,7.32821 -7.85855,9.31545 -1.80409,1.07365 -4.65715,2.10306 -5.8559,2.11287 -0.70374,0.006 -0.94181,0.1895 -1.51681,1.17067 -1.47938,2.52437 -6.59213,7.28363 -8.64477,8.04708 -1.0894,0.40518 -2.46229,0.54252 -3.20051,0.32015 z m -85.32476,-4.09298 c -0.45761,-0.19911 -1.32177,-0.80448 -1.92034,-1.34526 -1.96297,-1.77341 -1.90249,-0.93277 -1.8192,-25.28687 l 0.0737,-21.53617 0.61774,-1.15789 c 2.58749,-4.85003 9.25169,-4.59069 11.04331,0.42975 0.49721,1.39328 0.54548,43.49771 0.0518,45.14562 -0.43917,1.4658 -2.40544,3.46633 -3.77531,3.84108 -1.42431,0.38965 -3.2577,0.35091 -4.27161,-0.0903 z m 75.40881,-5.1521 c -0.5369,-0.32738 -0.99402,-0.93669 -1.29604,-1.72751 -0.69947,-1.83154 -0.31493,-2.75826 2.14655,-5.17306 1.1125,-1.09141 2.3774,-2.49784 2.81088,-3.12541 3.63194,-5.25812 3.91505,-12.03989 0.72589,-17.38889 -0.50159,-0.8413 -1.95378,-2.57445 -3.22709,-3.85145 -2.30623,-2.31292 -2.3151,-2.327 -2.3151,-3.67555 0,-1.71032 0.52107,-2.72526 1.68197,-3.27615 1.98606,-0.94245 3.42964,-0.43101 6.11686,2.16709 2.81716,2.72373 5.22745,6.53195 6.30897,9.96807 1.69529,5.3861 1.13598,11.85779 -1.50917,17.4625 -1.63044,3.45466 -5.08287,7.46114 -7.49227,8.69462 -1.14015,0.58371 -2.9275,0.55012 -3.95145,-0.0743 z m -34.40713,-4.80991 c -3.46937,-0.57924 -7.50167,-2.81185 -9.86255,-5.4607 -1.59969,-1.79481 -3.24442,-4.87278 -3.85445,-7.2133 -0.45024,-1.72738 -0.83963,-11.17476 -0.50416,-12.23173 0.13484,-0.42483 0.58492,-0.46827 4.85228,-0.46827 4.3777,0 4.73707,-0.0369 5.18565,-0.53258 0.26509,-0.29292 0.48198,-0.88669 0.48198,-1.3195 0,-0.43281 -0.21689,-1.02658 -0.48198,-1.3195 -0.44871,-0.49582 -0.80791,-0.53258 -5.20348,-0.53258 h -4.72149 v -2.51354 -2.51355 h 4.46224 c 4.11369,0 4.51669,-0.0428 5.15937,-0.54837 0.88483,-0.696 0.95328,-2.04791 0.14096,-2.78406 -0.49365,-0.44735 -1.07379,-0.51338 -5.15938,-0.58722 l -4.60319,-0.0832 v -2.47944 -2.47943 l 4.60319,-0.0832 c 4.08559,-0.0738 4.66573,-0.13987 5.15938,-0.58723 0.3094,-0.28038 0.55618,-0.82842 0.55618,-1.23513 0,-2.08161 -0.73107,-2.36188 -6.16078,-2.36188 h -4.33497 l 0.21284,-1.55632 c 0.84885,-6.20692 6.19496,-11.72726 12.94565,-13.36753 2.22298,-0.54014 6.77481,-0.54865 9.4531,-0.0177 4.40028,0.87236 8.81806,3.79485 11.15228,7.37755 1.20538,1.85009 2.39646,5.15426 2.39646,6.64801 v 0.91596 h -4.3484 c -2.39162,0 -4.67387,0.12374 -5.07166,0.27498 -1.43523,0.54568 -1.86488,2.0365 -0.92263,3.20144 0.49091,0.60693 0.64639,0.62837 5.4901,0.75691 l 4.98489,0.13229 0.004,2.43199 0.004,2.432 -4.98845,0.0815 c -4.87701,0.0797 -4.99974,0.0955 -5.49372,0.70617 -0.72912,0.90135 -0.64988,2.00135 0.19187,2.66346 0.64619,0.5083 1.04259,0.54837 5.42396,0.54837 h 4.72681 v 2.51355 2.51354 h -5.01208 c -4.8794,0 -5.02298,0.0156 -5.42395,0.58804 -0.58808,0.8396 -0.50892,1.87439 0.1939,2.53465 0.56823,0.53383 0.90853,0.57359 5.4901,0.64144 l 4.88433,0.0723 -0.02,5.29166 c -0.0219,5.80464 -0.2841,7.38195 -1.69002,10.16706 -1.87236,3.70913 -4.6522,6.45532 -8.31492,8.21429 -3.47911,1.67079 -7.90254,2.24988 -11.98251,1.56869 z"
       id="path1"
       inkscape:export-filename="soundmesh_inkscape_svg.svg"
       inkscape:export-xdpi="96"
       inkscape:export-ydpi="96" /></g></svg>
