<svg version="1.1" id="Layer_1" xmlns="http://www.w3.org/2000/svg" xmlns:xlink="http://www.w3.org/1999/xlink" x="0px" y="0px"
	 width="100%" viewBox="0 0 1024 1024" enable-background="new 0 0 1024 1024" xml:space="preserve">
<path fill="#000000" opacity="1.000000" stroke="none" 
	d="
M526.601868,167.978577 
	C539.445984,169.424896 551.858948,170.572449 563.997559,173.599518 
	C618.247498,187.127991 662.436829,215.783157 695.390015,261.198700 
	C715.411438,288.791809 727.591492,319.554138 732.489258,353.324097 
	C734.453125,366.864838 735.805420,380.380646 735.307983,394.053406 
	C735.215515,396.595154 735.949219,398.516876 738.029419,400.085175 
	C754.535278,412.529388 764.030090,429.388672 767.699158,449.398315 
	C772.296875,474.472717 768.915283,498.285767 753.102356,519.056152 
	C742.777893,532.617310 729.185425,541.651672 711.982056,544.225891 
	C709.055969,544.663696 707.666382,546.223389 706.211365,548.323853 
	C698.940613,558.820251 690.253357,567.962280 679.795410,575.332703 
	C674.526001,579.046448 668.920837,581.578369 662.114136,580.544434 
	C654.692749,579.417114 650.094421,575.215088 647.742126,568.353394 
	C645.375793,561.450867 647.180664,555.422363 652.539124,550.715576 
	C666.451416,538.495178 676.980408,523.950745 683.559387,506.611755 
	C688.655273,493.181366 690.893066,479.212646 689.585510,464.960785 
	C687.247925,439.481659 677.230835,417.482178 658.280090,399.886810 
	C656.570801,398.299805 654.925171,396.643463 653.196716,395.078125 
	C645.657532,388.250214 645.674377,383.354584 649.168213,374.954956 
	C652.040405,368.049896 661.609314,363.714325 669.316833,364.916748 
	C676.953613,366.108063 682.673767,370.668335 688.266724,375.440369 
	C693.346191,379.774353 697.788818,384.752411 702.197144,389.753143 
	C703.159912,390.845337 703.860535,392.335693 706.640991,392.140045 
	C706.640991,387.347137 706.935242,382.432983 706.595520,377.563110 
	C703.185608,328.677490 684.107788,286.909180 648.960571,252.743378 
	C620.398987,224.979370 586.481628,206.671600 547.253906,199.724701 
	C488.527039,189.324677 434.218323,200.231033 386.715546,237.602753 
	C347.467896,268.479950 322.819824,308.553406 314.616272,358.121460 
	C313.132324,367.087982 312.249146,376.202972 312.278442,385.403412 
	C312.433350,434.062927 312.355713,482.723267 312.348755,531.383301 
	C312.347168,542.449524 308.366760,545.645874 297.431610,543.532593 
	C283.358673,540.813049 272.264252,533.217224 263.445953,522.270386 
	C239.020966,491.949799 238.424057,443.366119 261.970215,412.904266 
	C266.893982,406.534363 272.685455,401.010376 279.448303,396.626434 
	C281.800598,395.101593 282.737122,393.408447 282.869110,390.575439 
	C283.495239,377.135071 284.088959,363.714752 286.511322,350.393127 
	C293.197235,313.624573 307.621521,280.447968 331.182098,251.327133 
	C364.829926,209.738434 407.999390,183.642548 460.080994,172.059036 
	C481.874115,167.212006 503.986755,167.150269 526.601868,167.978577 
M307.865051,437.518829 
	C307.821655,434.364929 308.982117,431.036163 306.479858,427.744141 
	C303.552002,431.359680 303.630341,434.968842 305.185974,438.589233 
	C306.046875,440.592743 307.106720,439.968689 307.865051,437.518829 
z"/>
<path fill="#000000" opacity="1.000000" stroke="none" 
	d="
M464.657104,397.670532 
	C466.586487,397.601715 468.067688,397.533752 469.624146,397.462341 
	C470.200592,395.442749 470.550293,393.508636 471.295929,391.741608 
	C473.335724,386.907806 471.951080,383.989960 466.578522,383.639984 
	C459.774994,383.196686 452.914948,383.145325 446.103668,383.457581 
	C441.211395,383.681854 439.395020,382.288208 439.469177,377.084381 
	C439.667847,363.145477 439.434479,363.164276 453.588715,363.073334 
	C459.418884,363.035858 465.250793,362.952148 471.077332,362.754669 
	C475.351715,362.609802 477.733246,360.469940 478.184143,355.998840 
	C478.628418,351.593781 475.635040,350.187592 472.525604,348.961304 
	C469.183624,347.643280 465.598022,348.420807 462.124573,348.374786 
	C454.668182,348.275940 447.209534,348.344482 439.316895,348.344482 
	C439.999847,332.086456 446.406616,319.015839 457.499329,308.136902 
	C484.062408,282.085724 532.264404,283.966034 557.564575,307.391266 
	C567.430298,316.525879 573.458313,327.804810 576.119263,340.898987 
	C576.606934,343.298920 576.704529,345.849426 575.898132,348.340881 
	C566.585449,348.340881 557.323975,348.357544 548.062744,348.329315 
	C545.715210,348.322174 543.431274,348.479736 541.188110,349.296600 
	C537.488708,350.643677 535.001160,353.154388 535.599121,357.114594 
	C536.187378,361.010742 539.048523,362.968109 543.148987,362.936432 
	C551.977661,362.868225 560.807129,362.912933 569.635864,362.844482 
	C576.327759,362.792633 576.269470,362.747955 576.421326,369.173767 
	C576.495911,372.330627 576.750671,375.489502 577.068970,378.632751 
	C577.429810,382.197449 576.372925,383.685120 572.375366,383.510559 
	C564.060120,383.147430 555.719666,383.361389 547.389526,383.341370 
	C546.723267,383.339783 546.055359,383.337036 545.390930,383.377869 
	C538.971680,383.772217 535.295349,386.519989 535.348633,390.871918 
	C535.403320,395.337219 538.816345,397.632904 545.701172,397.662079 
	C556.521606,397.707916 567.342285,397.674225 578.448608,397.674225 
	C574.888306,402.392181 576.461670,407.511139 576.472229,412.315277 
	C576.481812,416.674072 575.445435,417.880005 570.771484,417.566956 
	C561.481995,416.944733 552.123230,417.411499 542.795105,417.285614 
	C538.334717,417.225433 535.818542,419.268311 535.425781,423.619659 
	C535.090332,427.336426 538.422363,430.570221 542.881836,430.664215 
	C551.375244,430.843292 559.874268,430.746307 568.370972,430.777954 
	C577.228333,430.810944 577.314087,430.819153 577.215210,439.475830 
	C577.061646,452.919464 578.014954,466.387512 574.512939,479.676178 
	C568.343689,503.085876 545.013794,523.930786 521.080139,527.324890 
	C501.215973,530.141846 482.474213,527.825195 465.960541,515.663330 
	C448.466400,502.779449 439.693573,485.137299 439.151703,463.457031 
	C438.931152,454.632751 439.071442,445.799988 438.953339,436.972351 
	C438.891815,432.373474 440.764038,430.522430 445.577423,430.722626 
	C453.893127,431.068420 462.234131,430.871429 470.563629,430.799011 
	C476.072906,430.751129 478.764038,428.517944 478.770935,424.255219 
	C478.778076,419.838379 475.835785,417.359314 470.345917,417.326324 
	C461.682617,417.274261 453.017242,417.205841 444.356110,417.348511 
	C441.002258,417.403748 439.411377,416.358246 439.616913,412.792328 
	C439.817902,409.305328 439.810913,405.788635 439.611115,402.301239 
	C439.413727,398.855682 440.729370,397.535339 444.218445,397.630188 
	C450.877380,397.811188 457.544922,397.675568 464.657104,397.670532 
z"/>
<path fill="#000000" opacity="1.000000" stroke="none" 
	d="
M548.412537,556.568054 
	C540.062439,560.172546 531.679993,562.225403 523.071167,563.300842 
	C519.645752,563.728760 518.148254,565.148865 518.183044,568.752808 
	C518.318298,582.749939 518.346863,596.750366 518.178345,610.746704 
	C518.128723,614.870361 519.949219,615.804443 523.632202,615.757446 
	C534.962341,615.612854 546.295837,615.676941 557.627625,615.731384 
	C566.257996,615.772827 572.166016,621.108032 572.191223,628.750854 
	C572.214966,635.957275 566.103149,641.286743 557.681091,641.291504 
	C524.018127,641.310608 490.355225,641.312805 456.692291,641.292236 
	C447.315735,641.286438 441.875214,636.321960 442.074646,628.085388 
	C442.255554,620.612244 448.000946,615.732605 456.696564,615.717285 
	C468.028534,615.697266 479.360809,615.748901 490.692505,615.690369 
	C495.983215,615.663086 497.587067,614.187622 497.634705,608.841492 
	C497.753448,595.510681 497.608459,582.177490 497.739594,568.846924 
	C497.775055,565.246460 496.174988,563.850891 492.818756,563.336670 
	C459.957733,558.302307 435.176880,541.171631 418.136505,512.817566 
	C409.546051,498.523651 405.522247,482.876862 405.639282,466.174927 
	C405.698853,457.676270 405.604095,449.176270 405.692902,440.678070 
	C405.767334,433.557831 409.941376,428.942474 416.026947,429.024109 
	C422.307068,429.108368 426.052826,433.447418 426.315979,440.716919 
	C426.802551,454.157928 425.327728,467.621948 428.065002,481.041748 
	C434.190948,511.075073 458.371490,535.670898 488.377075,541.512329 
	C515.090698,546.712830 539.808777,542.127563 561.409912,525.101135 
	C579.773376,510.626801 588.602356,491.019318 589.583008,467.873047 
	C589.984680,458.391052 589.605164,448.877625 589.672607,439.379150 
	C589.715149,433.383575 593.320618,429.386505 598.869141,428.942902 
	C604.375610,428.502655 609.299438,431.895752 609.557434,437.749969 
	C610.076843,449.534088 610.017883,461.362915 609.705811,473.160278 
	C609.104431,495.894409 599.404785,514.961670 584.598633,531.542664 
	C574.716187,542.609741 562.514465,550.721619 548.412537,556.568054 
z"/>
<path fill="#000000" opacity="1.000000" stroke="none" 
	d="
M323.660522,519.999878 
	C323.674744,476.695282 323.627899,433.890533 323.748505,391.086243 
	C323.778107,380.583160 327.498199,371.921783 337.545685,366.958191 
	C352.654327,359.494293 370.114349,369.512817 370.199463,386.378265 
	C370.465057,439.008240 370.397095,491.640594 370.244415,544.271423 
	C370.207825,556.885986 359.988739,566.267151 347.183655,566.328918 
	C334.134094,566.391846 324.151825,556.781860 323.746124,543.483215 
	C323.512634,535.828369 323.676300,528.161438 323.660522,519.999878 
z"/>
<path fill="#000000" opacity="1.000000" stroke="none" 
	d="
M601.399658,800.796814 
	C593.851135,779.451416 586.471191,758.486877 579.026611,737.338867 
	C577.290527,738.632996 577.377869,740.191711 577.390259,741.605835 
	C577.483521,752.272400 576.100525,762.875366 576.246338,773.559509 
	C576.362000,782.033752 575.548706,790.517151 575.338379,799.001221 
	C575.256714,802.295227 573.744080,803.399414 570.681335,803.299316 
	C567.184998,803.185059 563.674316,803.102417 560.185120,803.290039 
	C556.543762,803.485718 555.591919,801.719360 555.743591,798.446472 
	C556.552124,780.997009 557.270386,763.543396 558.025818,746.091492 
	C558.572693,733.457031 559.337952,720.826843 559.573853,708.186707 
	C559.662720,703.425049 561.172791,701.628052 565.975342,701.899841 
	C571.120361,702.190979 576.314087,702.043457 581.462830,701.715271 
	C585.687317,701.445984 587.765442,703.236694 589.113831,707.132996 
	C595.646362,726.010254 602.388489,744.814880 609.038940,763.651489 
	C609.580688,765.185852 609.607849,766.974854 611.327881,767.887573 
	C613.069702,767.634949 613.162720,766.093689 613.514954,764.922729 
	C619.319458,745.623413 626.722778,726.869263 632.956116,707.719238 
	C634.344727,703.452942 636.601562,701.405518 641.276794,701.708923 
	C646.422363,702.042786 651.605164,701.846069 656.771179,701.805359 
	C659.790833,701.781616 661.239502,702.901184 661.383850,706.191772 
	C662.279846,726.617493 663.295898,747.038330 664.371643,767.455566 
	C664.905273,777.582947 665.573792,787.705017 666.338013,797.817627 
	C666.645996,801.892700 665.197266,803.671448 660.993347,803.332031 
	C658.013367,803.091553 654.976440,803.074951 652.002136,803.354553 
	C647.083191,803.817078 645.707092,801.568359 645.710999,796.947083 
	C645.725525,779.630676 644.076965,762.343689 644.658264,745.010498 
	C644.747437,742.350708 644.255127,739.795837 642.851746,736.336792 
	C641.809204,739.033203 641.012634,740.933716 640.333252,742.875244 
	C633.901917,761.254089 627.379944,779.602661 621.160339,798.053040 
	C619.804016,802.076660 617.761414,803.763000 613.578247,803.330688 
	C610.939819,803.057922 608.250244,803.290588 605.583679,803.275513 
	C603.894470,803.265991 602.162292,803.300354 601.399658,800.796814 
z"/>
<path fill="#000000" opacity="1.000000" stroke="none" 
	d="
M464.104248,772.428894 
	C462.738617,759.930847 465.148071,748.738037 472.612488,739.050354 
	C482.401123,726.346375 499.987518,723.115662 514.465210,731.039429 
	C516.201599,731.989746 517.925415,732.963013 520.664856,734.487610 
	C520.664856,730.170776 520.662964,726.622559 520.665222,723.074341 
	C520.670105,715.415100 520.760010,707.754517 520.643372,700.097168 
	C520.594666,696.904785 521.818359,695.545593 525.039551,695.672546 
	C528.697021,695.816772 532.380310,695.921204 536.023499,695.652405 
	C540.287537,695.337830 541.421204,697.222534 541.383911,701.211548 
	C541.224854,718.193848 541.299866,735.178284 541.298096,752.161987 
	C541.296509,767.314087 541.182678,782.467957 541.389160,797.617310 
	C541.448303,801.964172 540.046326,803.834473 535.648071,803.319641 
	C534.005615,803.127319 532.321594,803.293396 530.656555,803.288879 
	C523.239746,803.269043 523.239746,803.268127 522.300903,796.353638 
	C521.136719,795.612244 520.472229,796.553772 519.751404,797.161743 
	C500.845978,813.109619 474.102844,805.595459 466.313538,782.074524 
	C465.328583,779.100281 464.905457,775.940063 464.104248,772.428894 
M520.496948,754.542053 
	C517.185791,745.316467 499.259094,740.962280 491.034637,749.612061 
	C483.905426,757.110168 484.318542,765.932983 486.253204,774.845215 
	C489.643188,790.461243 509.082977,790.618103 516.611755,783.031189 
	C519.311218,780.310852 520.999878,777.339478 520.848328,773.331055 
	C520.622375,767.349976 520.678833,761.358276 520.496948,754.542053 
z"/>
<path fill="#000000" opacity="1.000000" stroke="none" 
	d="
M647.709106,466.288849 
	C646.515442,452.756714 641.266174,441.510376 632.360962,431.961609 
	C629.526123,428.921783 626.430786,426.125824 623.475769,423.196991 
	C617.718140,417.490601 616.635193,408.679565 621.025818,403.413818 
	C625.840637,397.639313 635.022217,396.924042 641.805542,402.225220 
	C659.100586,415.741241 670.976501,433.218414 674.840271,454.745026 
	C680.706726,487.430084 671.215942,515.909607 647.409973,539.276306 
	C642.655334,543.943176 637.384521,547.862000 629.891357,547.417175 
	C620.054993,546.833252 613.874634,536.935486 618.186462,528.051086 
	C619.905518,524.509033 622.783020,521.999512 625.645813,519.436279 
	C641.343689,505.381073 649.275085,488.049133 647.709106,466.288849 
z"/>
<path fill="#000000" opacity="1.000000" stroke="none" 
	d="
M163.369308,739.642700 
	C170.135345,742.078369 176.690918,743.940369 182.939392,746.738525 
	C197.520782,753.268494 202.859222,762.318115 202.188583,777.781311 
	C201.650116,790.197083 192.749451,800.366150 178.813248,803.724182 
	C163.613083,807.386658 148.796570,806.062073 135.103928,797.463623 
	C131.128296,794.967041 129.613815,792.507263 132.573700,788.272339 
	C134.728271,785.189636 135.452423,781.172241 138.811050,778.547241 
	C143.799866,781.141541 148.583282,784.217957 154.050400,785.760742 
	C160.749542,787.651367 167.453156,788.065369 174.099396,785.493347 
	C178.562363,783.766296 181.058151,780.420166 181.584961,775.749390 
	C182.085770,771.309082 179.233368,768.762634 175.922318,766.516052 
	C168.748459,761.648560 160.195969,760.320923 152.336075,757.219666 
	C135.933838,750.747681 128.644318,736.696472 133.735535,720.429626 
	C137.441116,708.590027 146.905609,703.236572 158.239624,700.983704 
	C171.304840,698.386719 183.646866,700.871704 195.134811,707.678650 
	C198.673950,709.775635 200.133087,712.107605 197.879272,716.188354 
	C195.989731,719.609497 195.730316,723.828552 192.853989,727.374756 
	C190.167725,725.934265 187.585480,724.539062 184.993652,723.161865 
	C179.595856,720.293518 173.898163,718.838745 167.726715,719.086365 
	C160.429321,719.379150 155.657639,721.996399 154.476791,726.683044 
	C153.117096,732.079468 155.649445,735.893616 163.369308,739.642700 
z"/>
<path fill="#000000" opacity="1.000000" stroke="none" 
	d="
M869.054443,748.918091 
	C863.567749,744.461731 857.735657,744.090637 851.959045,746.883545 
	C846.365112,749.588074 844.077576,754.352966 844.249756,760.769531 
	C844.571350,772.751526 844.152100,784.752747 844.429382,796.736938 
	C844.541260,801.577026 843.330811,803.484985 838.061462,803.391724 
	C823.708801,803.137512 823.700500,803.375183 823.700134,788.798584 
	C823.699341,759.987610 823.697266,731.176697 823.710693,702.365723 
	C823.713745,695.708069 823.741455,695.708069 830.385742,695.693481 
	C844.325073,695.662842 844.324829,695.662842 844.323669,709.515503 
	C844.322937,717.961060 844.323425,726.406616 844.323425,734.725281 
	C846.707214,735.495850 847.579895,733.953796 848.657288,733.096375 
	C857.930542,725.716797 868.023438,724.874512 878.644470,729.516052 
	C889.160706,734.111816 892.752258,743.372192 893.117432,753.789001 
	C893.636414,768.592468 893.201843,783.427917 893.291199,798.248962 
	C893.312622,801.807007 892.015442,803.228516 888.319641,803.338318 
	C873.646545,803.774292 873.828003,803.871399 873.591309,789.229492 
	C873.419495,778.603943 874.619202,767.941711 872.824036,757.346680 
	C872.308716,754.305481 871.174194,751.612244 869.054443,748.918091 
z"/>
<path fill="#000000" opacity="1.000000" stroke="none" 
	d="
M213.416870,752.750549 
	C219.678131,734.188293 234.940964,726.572205 250.171310,726.872742 
	C267.566620,727.215820 281.810211,738.822083 285.741455,755.235352 
	C291.083435,777.538513 280.432159,799.752258 258.554871,804.412842 
	C229.537796,810.594482 211.507446,791.033264 211.595673,769.421265 
	C211.618118,763.925903 211.422821,758.428528 213.416870,752.750549 
M238.355942,784.195435 
	C249.363327,791.833374 261.541138,787.831482 265.344543,775.381226 
	C267.317352,768.923279 266.770905,762.581482 264.531525,756.364685 
	C261.949799,749.197571 256.129486,744.608093 249.949677,744.558716 
	C242.585098,744.499878 235.661377,749.172729 233.556503,756.810913 
	C230.959869,766.233459 231.208771,775.558960 238.355942,784.195435 
z"/>
<path fill="#000000" opacity="1.000000" stroke="none" 
	d="
M704.185059,727.723816 
	C713.768677,725.601685 722.507324,726.944824 730.643616,731.446167 
	C741.682922,737.553650 750.039185,757.306458 747.234192,769.649658 
	C746.517212,772.804626 744.248596,772.309387 742.192444,772.317139 
	C729.540588,772.364868 716.888489,772.335876 704.236511,772.342712 
	C697.766663,772.346191 696.951233,773.752197 699.997314,779.599731 
	C703.853271,787.001648 712.788147,790.337463 723.015320,788.425415 
	C728.617676,787.377991 733.509521,784.498901 738.906372,782.442261 
	C741.219788,786.011047 742.207275,789.860229 743.455322,793.608582 
	C744.486694,796.706421 742.153625,797.815979 740.246582,799.015625 
	C730.312805,805.264526 719.271973,806.718872 708.052368,804.837830 
	C688.856689,801.619507 677.850403,789.070435 676.727478,770.325806 
	C675.442322,748.871643 684.941101,733.917297 704.185059,727.723816 
M698.231445,754.435181 
	C697.214722,757.490723 699.054688,757.735291 701.354675,757.720093 
	C707.505493,757.679565 713.659241,757.817017 719.806580,757.667175 
	C722.004150,757.613647 724.964539,758.861267 726.241394,756.415588 
	C727.693726,753.633850 725.832458,750.956482 724.256165,748.612671 
	C722.083801,745.382568 718.891846,743.725525 715.056885,743.343140 
	C706.862793,742.526184 702.329407,745.372253 698.231445,754.435181 
z"/>
<path fill="#000000" opacity="1.000000" stroke="none" 
	d="
M345.037598,764.825867 
	C345.014008,754.027283 345.109802,743.704590 344.926941,733.386963 
	C344.864532,729.864624 346.212921,728.607422 349.600006,728.724670 
	C353.756653,728.868591 357.923737,728.799255 362.084106,728.713867 
	C364.923096,728.655579 366.372314,729.664246 366.363434,732.754700 
	C366.299805,754.896362 366.299164,777.038269 366.349670,799.179993 
	C366.356506,802.169861 365.125458,803.437256 362.169128,803.308777 
	C359.842987,803.207764 357.508606,803.307312 355.177917,803.299927 
	C348.249695,803.277954 348.249695,803.274475 347.276581,796.328857 
	C346.836548,796.406006 346.227356,796.323364 345.994904,796.580872 
	C337.126190,806.403625 326.016663,806.992798 314.319183,803.837830 
	C304.489471,801.186646 298.163208,792.065430 297.824463,779.569458 
	C297.405060,764.098267 297.757660,748.607117 297.663696,733.125305 
	C297.644226,729.920166 298.859833,728.607178 302.077057,728.732971 
	C305.899780,728.882446 309.739990,728.885681 313.560608,728.701965 
	C317.332825,728.520630 318.422668,730.266785 318.388855,733.809326 
	C318.264862,746.793579 318.298798,759.780029 318.373077,772.765076 
	C318.415955,780.260376 321.285217,785.048706 326.520874,786.817566 
	C336.326385,790.130493 345.763702,783.184937 345.542328,772.771118 
	C345.489380,770.279602 345.218475,767.792786 345.037598,764.825867 
z"/>
<path fill="#000000" opacity="1.000000" stroke="none" 
	d="
M452.345154,772.000244 
	C452.341400,780.831543 452.106323,789.171692 452.423889,797.490784 
	C452.603851,802.205994 450.810974,803.731018 446.340759,803.336060 
	C443.200012,803.058716 440.000336,803.114807 436.851379,803.349426 
	C432.970428,803.638611 431.541046,802.192871 431.609131,798.214966 
	C431.805756,786.721191 431.664551,775.221741 431.669037,763.724487 
	C431.669952,761.388733 431.480286,759.112183 430.913788,756.808838 
	C428.772064,748.100525 423.712097,744.385620 415.033203,745.378601 
	C407.506775,746.239746 402.294312,752.128418 402.259399,759.962097 
	C402.203674,772.458679 402.105591,784.957153 402.273254,797.451477 
	C402.329926,801.674072 401.013947,803.354614 396.561249,803.377563 
	C381.651398,803.454407 381.650665,803.597412 381.651703,788.884521 
	C381.652985,770.722229 381.764099,752.558777 381.581024,734.398376 
	C381.537781,730.109741 382.741486,728.140320 387.236267,728.720520 
	C389.203705,728.974365 391.229950,728.766357 393.229370,728.780212 
	C400.199341,728.828674 400.199341,728.830688 402.361450,734.679688 
	C404.132507,735.373840 405.135651,733.930786 406.220581,733.078674 
	C415.883606,725.489929 426.500763,724.927368 437.247528,729.736511 
	C448.347931,734.703918 451.550781,744.856812 452.257385,756.007385 
	C452.583435,761.152832 452.333771,766.334839 452.345154,772.000244 
z"/>
<path fill="#000000" opacity="1.000000" stroke="none" 
	d="
M804.934021,799.010254 
	C794.734802,808.166382 769.608459,806.825134 758.674805,799.512024 
	C756.596008,798.121521 756.188965,796.493530 756.947693,794.410400 
	C758.360413,790.531677 759.889954,786.695557 761.374146,782.833252 
	C764.269165,782.848877 766.192017,784.651733 768.432495,785.613403 
	C775.340759,788.578796 782.381653,789.958435 789.779419,787.692139 
	C792.568298,786.837830 794.449707,785.094238 794.573303,782.022583 
	C794.690552,779.108276 792.811890,777.514587 790.441895,776.350159 
	C787.436829,774.873596 784.252258,773.966553 780.973267,773.334045 
	C776.875549,772.543579 772.915588,771.259766 769.159973,769.465759 
	C760.664429,765.407593 756.169678,758.751770 756.712708,749.178894 
	C757.250122,739.705627 762.497009,733.364990 770.930481,729.793518 
	C782.343262,724.960510 793.644714,726.291016 804.739990,731.289490 
	C807.930664,732.726990 809.447571,734.658752 808.328125,738.278198 
	C807.262573,741.723633 806.460144,745.250427 805.409241,749.246460 
	C799.923950,746.706909 794.912170,744.215393 789.227356,743.632690 
	C786.116333,743.313843 783.248535,743.818359 780.473938,744.959045 
	C778.421692,745.802734 776.635315,747.248230 776.467346,749.660583 
	C776.282288,752.317871 777.974915,754.179504 780.208801,755.044678 
	C783.913391,756.479492 787.732910,757.731323 791.609436,758.576843 
	C795.577148,759.442261 799.246582,760.945862 802.729919,762.864990 
	C816.065063,770.211853 817.196838,787.132141 804.934021,799.010254 
z"/>
</svg>